ISO-10303-21;
HEADER;
FILE_DESCRIPTION (( 'STEP AP214' ),
    '1' );
FILE_NAME ('block.STEP',
    '2026-03-04T18:03:57',
    ( '' ),
    ( '' ),
    'SwSTEP 2.0',
    'SolidWorks 2024',
    '' );
FILE_SCHEMA (( 'AUTOMOTIVE_DESIGN' ));
ENDSEC;

DATA;
#1 = AXIS2_PLACEMENT_3D ( 'NONE', #60, #47, #105 ) ;
#2 = EDGE_CURVE ( 'NONE', #170, #143, #16, .T. ) ;
#3 = DIRECTION ( 'NONE',  ( -1.365923996832131609E-16, 0.000000000000000000, -1.000000000000000000 ) ) ;
#4 = EDGE_LOOP ( 'NONE', ( #129, #41, #73, #181 ) ) ;
#5 = DIRECTION ( 'NONE',  ( 1.000000000000000000, 0.000000000000000000, -0.000000000000000000 ) ) ;
#6 = ORIENTED_EDGE ( 'NONE', *, *, #137, .F. ) ;
#7 = DIRECTION ( 'NONE',  ( 1.000000000000000000, 0.000000000000000000, 0.000000000000000000 ) ) ;
#8 =( GEOMETRIC_REPRESENTATION_CONTEXT ( 3 ) GLOBAL_UNCERTAINTY_ASSIGNED_CONTEXT ( ( #118 ) ) GLOBAL_UNIT_ASSIGNED_CONTEXT ( ( #150, #173, #114 ) ) REPRESENTATION_CONTEXT ( 'NONE', 'WORKASPACE' ) );
#9 = DIRECTION ( 'NONE',  ( 0.000000000000000000, 0.000000000000000000, 1.000000000000000000 ) ) ;
#10 = LINE ( 'NONE', #102, #154 ) ;
#11 = ADVANCED_BREP_SHAPE_REPRESENTATION ( 'block', ( #124, #1 ), #92 ) ;
#12 = DIRECTION ( 'NONE',  ( 0.000000000000000000, 1.000000000000000000, -0.000000000000000000 ) ) ;
#13 = CARTESIAN_POINT ( 'NONE',  ( 50.79999999999997584, 26.05000000000000071, -50.79999999999999716 ) ) ;
#14 = LINE ( 'NONE', #172, #22 ) ;
#15 = FACE_OUTER_BOUND ( 'NONE', #4, .T. ) ;
#16 = LINE ( 'NONE', #169, #136 ) ;
#17 = VECTOR ( 'NONE', #7, 1000.000000000000000 ) ;
#18 =( NAMED_UNIT ( * ) SI_UNIT ( $, .STERADIAN. ) SOLID_ANGLE_UNIT ( ) );
#19 = ADVANCED_FACE ( 'NONE', ( #63 ), #101, .F. ) ;
#20 = PRODUCT_CONTEXT ( 'NONE', #162, 'mechanical' ) ;
#21 = ADVANCED_FACE ( 'NONE', ( #27 ), #56, .F. ) ;
#22 = VECTOR ( 'NONE', #117, 1000.000000000000000 ) ;
#23 = ORIENTED_EDGE ( 'NONE', *, *, #64, .F. ) ;
#24 = PLANE ( 'NONE',  #25 ) ;
#25 = AXIS2_PLACEMENT_3D ( 'NONE', #84, #110, #5 ) ;
#26 = EDGE_CURVE ( 'NONE', #170, #29, #147, .T. ) ;
#27 = FACE_OUTER_BOUND ( 'NONE', #133, .T. ) ;
#28 = CARTESIAN_POINT ( 'NONE',  ( 0.000000000000000000, 1.050000000000000044, 0.000000000000000000 ) ) ;
#29 = VERTEX_POINT ( 'NONE', #157 ) ;
#30 = ORIENTED_EDGE ( 'NONE', *, *, #2, .F. ) ;
#31 = PRODUCT_RELATED_PRODUCT_CATEGORY ( 'part', '', ( #78 ) ) ;
#32 = CARTESIAN_POINT ( 'NONE',  ( 0.000000000000000000, 26.05000000000000071, 0.000000000000000000 ) ) ;
#33 = APPLICATION_PROTOCOL_DEFINITION ( 'draft international standard', 'automotive_design', 1998, #65 ) ;
#34 = EDGE_CURVE ( 'NONE', #29, #59, #111, .T. ) ;
#35 = PLANE ( 'NONE',  #164 ) ;
#36 = ADVANCED_FACE ( 'NONE', ( #72 ), #175, .F. ) ;
#37 = CARTESIAN_POINT ( 'NONE',  ( 50.79999999999998295, 1.050000000000000044, 0.000000000000000000 ) ) ;
#38 = VECTOR ( 'NONE', #131, 1000.000000000000000 ) ;
#39 = DIRECTION ( 'NONE',  ( -1.000000000000000000, 0.000000000000000000, 0.000000000000000000 ) ) ;
#40 = LINE ( 'NONE', #166, #149 ) ;
#41 = ORIENTED_EDGE ( 'NONE', *, *, #51, .T. ) ;
#42 = EDGE_CURVE ( 'NONE', #59, #87, #44, .T. ) ;
#43 = ORIENTED_EDGE ( 'NONE', *, *, #2, .T. ) ;
#44 = LINE ( 'NONE', #120, #178 ) ;
#45 = DIRECTION ( 'NONE',  ( 1.000000000000000000, 0.000000000000000000, -4.097771990496394828E-16 ) ) ;
#46 = EDGE_LOOP ( 'NONE', ( #6, #160, #23, #70 ) ) ;
#47 = DIRECTION ( 'NONE',  ( 0.000000000000000000, 0.000000000000000000, 1.000000000000000000 ) ) ;
#48 = SURFACE_STYLE_FILL_AREA ( #88 ) ;
#49 = AXIS2_PLACEMENT_3D ( 'NONE', #98, #145, #97 ) ;
#50 = VECTOR ( 'NONE', #167, 1000.000000000000000 ) ;
#51 = EDGE_CURVE ( 'NONE', #29, #90, #14, .T. ) ;
#52 = ORIENTED_EDGE ( 'NONE', *, *, #66, .F. ) ;
#53 = ORIENTED_EDGE ( 'NONE', *, *, #137, .T. ) ;
#54 = CARTESIAN_POINT ( 'NONE',  ( 50.79999999999997584, 26.05000000000000071, -50.79999999999999716 ) ) ;
#55 = AXIS2_PLACEMENT_3D ( 'NONE', #113, #61, #184 ) ;
#56 = PLANE ( 'NONE',  #49 ) ;
#57 = EDGE_CURVE ( 'NONE', #90, #77, #174, .T. ) ;
#58 = CARTESIAN_POINT ( 'NONE',  ( 50.79999999999998295, 1.050000000000000044, 0.000000000000000000 ) ) ;
#59 = VERTEX_POINT ( 'NONE', #180 ) ;
#60 = CARTESIAN_POINT ( 'NONE',  ( 0.000000000000000000, 0.000000000000000000, 0.000000000000000000 ) ) ;
#61 = DIRECTION ( 'NONE',  ( 0.000000000000000000, 0.000000000000000000, -1.000000000000000000 ) ) ;
#62 = DIRECTION ( 'NONE',  ( -4.097771990496394828E-16, 0.000000000000000000, -1.000000000000000000 ) ) ;
#63 = FACE_OUTER_BOUND ( 'NONE', #46, .T. ) ;
#64 = EDGE_CURVE ( 'NONE', #87, #89, #152, .T. ) ;
#65 = APPLICATION_CONTEXT ( 'automotive_design' ) ;
#66 = EDGE_CURVE ( 'NONE', #90, #87, #40, .T. ) ;
#67 = VECTOR ( 'NONE', #39, 1000.000000000000000 ) ;
#68 = ORIENTED_EDGE ( 'NONE', *, *, #42, .T. ) ;
#69 = EDGE_CURVE ( 'NONE', #77, #170, #82, .T. ) ;
#70 = ORIENTED_EDGE ( 'NONE', *, *, #42, .F. ) ;
#71 = FACE_OUTER_BOUND ( 'NONE', #155, .T. ) ;
#72 = FACE_OUTER_BOUND ( 'NONE', #187, .T. ) ;
#73 = ORIENTED_EDGE ( 'NONE', *, *, #57, .T. ) ;
#74 = DIRECTION ( 'NONE',  ( 0.000000000000000000, 1.000000000000000000, -0.000000000000000000 ) ) ;
#75 = ORIENTED_EDGE ( 'NONE', *, *, #64, .T. ) ;
#76 =( LENGTH_UNIT ( ) NAMED_UNIT ( * ) SI_UNIT ( .MILLI., .METRE. ) );
#77 = VERTEX_POINT ( 'NONE', #127 ) ;
#78 = PRODUCT ( 'block', 'block', '', ( #20 ) ) ;
#79 = COLOUR_RGB ( '',0.7921568627450980005, 0.8196078431372548767, 0.9333333333333333481 ) ;
#80 = ORIENTED_EDGE ( 'NONE', *, *, #26, .F. ) ;
#81 = ORIENTED_EDGE ( 'NONE', *, *, #34, .F. ) ;
#82 = LINE ( 'NONE', #139, #125 ) ;
#83 = ORIENTED_EDGE ( 'NONE', *, *, #132, .T. ) ;
#84 = CARTESIAN_POINT ( 'NONE',  ( 50.79999999999997584, 26.05000000000000071, -50.79999999999999716 ) ) ;
#85 = ORIENTED_EDGE ( 'NONE', *, *, #69, .F. ) ;
#86 = DIRECTION ( 'NONE',  ( -1.365923996832131609E-16, 0.000000000000000000, -1.000000000000000000 ) ) ;
#87 = VERTEX_POINT ( 'NONE', #182 ) ;
#88 = FILL_AREA_STYLE ('',( #119 ) ) ;
#89 = VERTEX_POINT ( 'NONE', #37 ) ;
#90 = VERTEX_POINT ( 'NONE', #95 ) ;
#91 = SHAPE_DEFINITION_REPRESENTATION ( #176, #11 ) ;
#92 =( GEOMETRIC_REPRESENTATION_CONTEXT ( 3 ) GLOBAL_UNCERTAINTY_ASSIGNED_CONTEXT ( ( #126 ) ) GLOBAL_UNIT_ASSIGNED_CONTEXT ( ( #76, #186, #18 ) ) REPRESENTATION_CONTEXT ( 'NONE', 'WORKASPACE' ) );
#93 = SURFACE_STYLE_USAGE ( .BOTH. , #100 ) ;
#94 = PRODUCT_DEFINITION ( 'UNKNOWN', '', #112, #104 ) ;
#95 = CARTESIAN_POINT ( 'NONE',  ( 0.000000000000000000, 26.05000000000000071, 0.000000000000000000 ) ) ;
#96 = VECTOR ( 'NONE', #161, 1000.000000000000000 ) ;
#97 = DIRECTION ( 'NONE',  ( 1.365923996832131609E-16, 0.000000000000000000, 1.000000000000000000 ) ) ;
#98 = CARTESIAN_POINT ( 'NONE',  ( 50.79999999999998295, 26.05000000000000071, 0.000000000000000000 ) ) ;
#99 = CARTESIAN_POINT ( 'NONE',  ( 0.000000000000000000, 1.050000000000000044, 0.000000000000000000 ) ) ;
#100 = SURFACE_SIDE_STYLE ('',( #48 ) ) ;
#101 = PLANE ( 'NONE',  #168 ) ;
#102 = CARTESIAN_POINT ( 'NONE',  ( 50.79999999999997584, 1.050000000000000044, -50.79999999999999716 ) ) ;
#103 = ORIENTED_EDGE ( 'NONE', *, *, #57, .F. ) ;
#104 = PRODUCT_DEFINITION_CONTEXT ( 'detailed design', #65, 'design' ) ;
#105 = DIRECTION ( 'NONE',  ( 1.000000000000000000, 0.000000000000000000, 0.000000000000000000 ) ) ;
#106 = CLOSED_SHELL ( 'NONE', ( #108, #122, #36, #21, #156, #19 ) ) ;
#107 = VECTOR ( 'NONE', #86, 1000.000000000000000 ) ;
#108 = ADVANCED_FACE ( 'NONE', ( #153 ), #24, .F. ) ;
#109 = ORIENTED_EDGE ( 'NONE', *, *, #151, .T. ) ;
#110 = DIRECTION ( 'NONE',  ( 0.000000000000000000, -0.000000000000000000, 1.000000000000000000 ) ) ;
#111 = LINE ( 'NONE', #142, #38 ) ;
#112 = PRODUCT_DEFINITION_FORMATION_WITH_SPECIFIED_SOURCE ( 'ANY', '', #78, .NOT_KNOWN. ) ;
#113 = CARTESIAN_POINT ( 'NONE',  ( 0.000000000000000000, 26.05000000000000071, 0.000000000000000000 ) ) ;
#114 =( NAMED_UNIT ( * ) SI_UNIT ( $, .STERADIAN. ) SOLID_ANGLE_UNIT ( ) );
#115 = DIRECTION ( 'NONE',  ( 4.097771990496394828E-16, 0.000000000000000000, 1.000000000000000000 ) ) ;
#116 = CARTESIAN_POINT ( 'NONE',  ( -2.081668171172168513E-14, 26.05000000000000071, -50.79999999999999716 ) ) ;
#117 = DIRECTION ( 'NONE',  ( 4.097771990496394828E-16, 0.000000000000000000, 1.000000000000000000 ) ) ;
#118 = UNCERTAINTY_MEASURE_WITH_UNIT (LENGTH_MEASURE( 1.000000000000000082E-05 ), #150, 'distance_accuracy_value', 'NONE');
#119 = FILL_AREA_STYLE_COLOUR ( '', #79 ) ;
#120 = CARTESIAN_POINT ( 'NONE',  ( -2.081668171172168513E-14, 1.050000000000000044, -50.79999999999999716 ) ) ;
#121 = PLANE ( 'NONE',  #140 ) ;
#122 = ADVANCED_FACE ( 'NONE', ( #71 ), #35, .F. ) ;
#123 = CARTESIAN_POINT ( 'NONE',  ( 50.79999999999997584, 1.050000000000000044, -50.79999999999999716 ) ) ;
#124 = MANIFOLD_SOLID_BREP ( 'PETGBlock', #106 ) ;
#125 = VECTOR ( 'NONE', #3, 1000.000000000000000 ) ;
#126 = UNCERTAINTY_MEASURE_WITH_UNIT (LENGTH_MEASURE( 1.000000000000000082E-05 ), #76, 'distance_accuracy_value', 'NONE');
#127 = CARTESIAN_POINT ( 'NONE',  ( 50.79999999999998295, 26.05000000000000071, 0.000000000000000000 ) ) ;
#128 = ORIENTED_EDGE ( 'NONE', *, *, #66, .T. ) ;
#129 = ORIENTED_EDGE ( 'NONE', *, *, #26, .T. ) ;
#130 = MECHANICAL_DESIGN_GEOMETRIC_PRESENTATION_REPRESENTATION (  '', ( #179 ), #8 ) ;
#131 = DIRECTION ( 'NONE',  ( -0.000000000000000000, -1.000000000000000000, -0.000000000000000000 ) ) ;
#132 = EDGE_CURVE ( 'NONE', #89, #143, #146, .T. ) ;
#133 = EDGE_LOOP ( 'NONE', ( #83, #30, #85, #109 ) ) ;
#134 = DIRECTION ( 'NONE',  ( 0.000000000000000000, 0.000000000000000000, 1.000000000000000000 ) ) ;
#135 = DIRECTION ( 'NONE',  ( -0.000000000000000000, -1.000000000000000000, -0.000000000000000000 ) ) ;
#136 = VECTOR ( 'NONE', #135, 1000.000000000000000 ) ;
#137 = EDGE_CURVE ( 'NONE', #143, #59, #10, .T. ) ;
#138 = EDGE_LOOP ( 'NONE', ( #53, #81, #80, #43 ) ) ;
#139 = CARTESIAN_POINT ( 'NONE',  ( 50.79999999999998295, 26.05000000000000071, 0.000000000000000000 ) ) ;
#140 = AXIS2_PLACEMENT_3D ( 'NONE', #171, #74, #134 ) ;
#141 = ORIENTED_EDGE ( 'NONE', *, *, #51, .F. ) ;
#142 = CARTESIAN_POINT ( 'NONE',  ( -2.081668171172168513E-14, 26.05000000000000071, -50.79999999999999716 ) ) ;
#143 = VERTEX_POINT ( 'NONE', #123 ) ;
#144 = PRESENTATION_STYLE_ASSIGNMENT (( #93 ) ) ;
#145 = DIRECTION ( 'NONE',  ( -1.000000000000000000, 0.000000000000000000, 1.365923996832131609E-16 ) ) ;
#146 = LINE ( 'NONE', #58, #107 ) ;
#147 = LINE ( 'NONE', #54, #67 ) ;
#148 = ORIENTED_EDGE ( 'NONE', *, *, #151, .F. ) ;
#149 = VECTOR ( 'NONE', #165, 1000.000000000000000 ) ;
#150 =( LENGTH_UNIT ( ) NAMED_UNIT ( * ) SI_UNIT ( .MILLI., .METRE. ) );
#151 = EDGE_CURVE ( 'NONE', #77, #89, #163, .T. ) ;
#152 = LINE ( 'NONE', #28, #50 ) ;
#153 = FACE_OUTER_BOUND ( 'NONE', #138, .T. ) ;
#154 = VECTOR ( 'NONE', #159, 1000.000000000000000 ) ;
#155 = EDGE_LOOP ( 'NONE', ( #68, #52, #141, #158 ) ) ;
#156 = ADVANCED_FACE ( 'NONE', ( #15 ), #121, .T. ) ;
#157 = CARTESIAN_POINT ( 'NONE',  ( -2.081668171172168513E-14, 26.05000000000000071, -50.79999999999999716 ) ) ;
#158 = ORIENTED_EDGE ( 'NONE', *, *, #34, .T. ) ;
#159 = DIRECTION ( 'NONE',  ( -1.000000000000000000, 0.000000000000000000, 0.000000000000000000 ) ) ;
#160 = ORIENTED_EDGE ( 'NONE', *, *, #132, .F. ) ;
#161 = DIRECTION ( 'NONE',  ( -0.000000000000000000, -1.000000000000000000, -0.000000000000000000 ) ) ;
#162 = APPLICATION_CONTEXT ( 'automotive_design' ) ;
#163 = LINE ( 'NONE', #185, #96 ) ;
#164 = AXIS2_PLACEMENT_3D ( 'NONE', #116, #45, #62 ) ;
#165 = DIRECTION ( 'NONE',  ( -0.000000000000000000, -1.000000000000000000, -0.000000000000000000 ) ) ;
#166 = CARTESIAN_POINT ( 'NONE',  ( 0.000000000000000000, 26.05000000000000071, 0.000000000000000000 ) ) ;
#167 = DIRECTION ( 'NONE',  ( 1.000000000000000000, 0.000000000000000000, 0.000000000000000000 ) ) ;
#168 = AXIS2_PLACEMENT_3D ( 'NONE', #99, #12, #9 ) ;
#169 = CARTESIAN_POINT ( 'NONE',  ( 50.79999999999997584, 26.05000000000000071, -50.79999999999999716 ) ) ;
#170 = VERTEX_POINT ( 'NONE', #13 ) ;
#171 = CARTESIAN_POINT ( 'NONE',  ( 0.000000000000000000, 26.05000000000000071, 0.000000000000000000 ) ) ;
#172 = CARTESIAN_POINT ( 'NONE',  ( -2.081668171172168513E-14, 26.05000000000000071, -50.79999999999999716 ) ) ;
#173 =( NAMED_UNIT ( * ) PLANE_ANGLE_UNIT ( ) SI_UNIT ( $, .RADIAN. ) );
#174 = LINE ( 'NONE', #32, #17 ) ;
#175 = PLANE ( 'NONE',  #55 ) ;
#176 = PRODUCT_DEFINITION_SHAPE ( 'NONE', 'NONE',  #94 ) ;
#177 = APPLICATION_PROTOCOL_DEFINITION ( 'draft international standard', 'automotive_design', 1998, #162 ) ;
#178 = VECTOR ( 'NONE', #115, 1000.000000000000000 ) ;
#179 = STYLED_ITEM ( 'NONE', ( #144 ), #124 ) ;
#180 = CARTESIAN_POINT ( 'NONE',  ( -2.081668171172168513E-14, 1.050000000000000044, -50.79999999999999716 ) ) ;
#181 = ORIENTED_EDGE ( 'NONE', *, *, #69, .T. ) ;
#182 = CARTESIAN_POINT ( 'NONE',  ( 0.000000000000000000, 1.050000000000000044, 0.000000000000000000 ) ) ;
#183 = PRESENTATION_LAYER_ASSIGNMENT (  '', '', ( #179 ) ) ;
#184 = DIRECTION ( 'NONE',  ( -1.000000000000000000, 0.000000000000000000, -0.000000000000000000 ) ) ;
#185 = CARTESIAN_POINT ( 'NONE',  ( 50.79999999999998295, 26.05000000000000071, 0.000000000000000000 ) ) ;
#186 =( NAMED_UNIT ( * ) PLANE_ANGLE_UNIT ( ) SI_UNIT ( $, .RADIAN. ) );
#187 = EDGE_LOOP ( 'NONE', ( #75, #148, #103, #128 ) ) ;
ENDSEC;
END-ISO-10303-21;
